<mxfile host="app.diagrams.net" agent="Mozilla/5.0 (Windows NT 10.0; Win64; x64) AppleWebKit/537.36 (KHTML, like Gecko) Chrome/127.0.0.0 Safari/537.36" version="24.7.6">
  <diagram name="Page-1" id="c9ADc3QQq6_SbGH_JZv6">
    <mxGraphModel dx="989" dy="526" grid="1" gridSize="10" guides="1" tooltips="1" connect="1" arrows="1" fold="1" page="1" pageScale="1" pageWidth="1100" pageHeight="850" math="0" shadow="0">
      <root>
        <mxCell id="0" />
        <mxCell id="1" parent="0" />
        <mxCell id="zaG6w3NYUVX7-Np-dRyB-1" value="&lt;font style=&quot;font-size: 24px;&quot;&gt;Branch&lt;/font&gt;" style="rounded=1;whiteSpace=wrap;html=1;" parent="1" vertex="1">
          <mxGeometry x="90" y="330" width="120" height="60" as="geometry" />
        </mxCell>
        <mxCell id="zaG6w3NYUVX7-Np-dRyB-2" value="&lt;b&gt;&lt;u&gt;Code&lt;/u&gt;&lt;/b&gt;" style="ellipse;whiteSpace=wrap;html=1;" parent="1" vertex="1">
          <mxGeometry x="40" y="270" width="60" height="40" as="geometry" />
        </mxCell>
        <mxCell id="zaG6w3NYUVX7-Np-dRyB-3" value="Name" style="ellipse;whiteSpace=wrap;html=1;" parent="1" vertex="1">
          <mxGeometry x="120" y="270" width="60" height="40" as="geometry" />
        </mxCell>
        <mxCell id="zaG6w3NYUVX7-Np-dRyB-4" value="Address" style="ellipse;whiteSpace=wrap;html=1;" parent="1" vertex="1">
          <mxGeometry x="200" y="270" width="60" height="40" as="geometry" />
        </mxCell>
        <mxCell id="zaG6w3NYUVX7-Np-dRyB-5" value="City" style="ellipse;whiteSpace=wrap;html=1;" parent="1" vertex="1">
          <mxGeometry x="180" y="230" width="40" height="30" as="geometry" />
        </mxCell>
        <mxCell id="zaG6w3NYUVX7-Np-dRyB-6" value="Area" style="ellipse;whiteSpace=wrap;html=1;" parent="1" vertex="1">
          <mxGeometry x="230" y="230" width="40" height="30" as="geometry" />
        </mxCell>
        <mxCell id="zaG6w3NYUVX7-Np-dRyB-7" value="Street" style="ellipse;whiteSpace=wrap;html=1;" parent="1" vertex="1">
          <mxGeometry x="280" y="230" width="40" height="30" as="geometry" />
        </mxCell>
        <mxCell id="zaG6w3NYUVX7-Np-dRyB-8" value="Building no." style="ellipse;whiteSpace=wrap;html=1;" parent="1" vertex="1">
          <mxGeometry x="280" y="270" width="70" height="30" as="geometry" />
        </mxCell>
        <mxCell id="zaG6w3NYUVX7-Np-dRyB-9" value="Floor" style="ellipse;whiteSpace=wrap;html=1;" parent="1" vertex="1">
          <mxGeometry x="295" y="310" width="40" height="20" as="geometry" />
        </mxCell>
        <mxCell id="zaG6w3NYUVX7-Np-dRyB-10" value="" style="endArrow=none;html=1;rounded=0;entryX=0.5;entryY=1;entryDx=0;entryDy=0;exitX=0.25;exitY=0;exitDx=0;exitDy=0;" parent="1" source="zaG6w3NYUVX7-Np-dRyB-1" target="zaG6w3NYUVX7-Np-dRyB-2" edge="1">
          <mxGeometry width="50" height="50" relative="1" as="geometry">
            <mxPoint x="-20" y="370" as="sourcePoint" />
            <mxPoint x="30" y="320" as="targetPoint" />
          </mxGeometry>
        </mxCell>
        <mxCell id="zaG6w3NYUVX7-Np-dRyB-11" value="" style="endArrow=none;html=1;rounded=0;entryX=0.5;entryY=1;entryDx=0;entryDy=0;exitX=0.5;exitY=0;exitDx=0;exitDy=0;" parent="1" source="zaG6w3NYUVX7-Np-dRyB-1" target="zaG6w3NYUVX7-Np-dRyB-3" edge="1">
          <mxGeometry width="50" height="50" relative="1" as="geometry">
            <mxPoint x="190" y="350" as="sourcePoint" />
            <mxPoint x="140" y="330" as="targetPoint" />
          </mxGeometry>
        </mxCell>
        <mxCell id="zaG6w3NYUVX7-Np-dRyB-12" value="" style="endArrow=none;html=1;rounded=0;entryX=0;entryY=1;entryDx=0;entryDy=0;exitX=0.75;exitY=0;exitDx=0;exitDy=0;" parent="1" source="zaG6w3NYUVX7-Np-dRyB-1" target="zaG6w3NYUVX7-Np-dRyB-4" edge="1">
          <mxGeometry width="50" height="50" relative="1" as="geometry">
            <mxPoint x="280" y="340" as="sourcePoint" />
            <mxPoint x="230" y="320" as="targetPoint" />
          </mxGeometry>
        </mxCell>
        <mxCell id="zaG6w3NYUVX7-Np-dRyB-13" value="" style="endArrow=none;html=1;rounded=0;entryX=0;entryY=0.5;entryDx=0;entryDy=0;exitX=1;exitY=1;exitDx=0;exitDy=0;" parent="1" source="zaG6w3NYUVX7-Np-dRyB-4" target="zaG6w3NYUVX7-Np-dRyB-9" edge="1">
          <mxGeometry width="50" height="50" relative="1" as="geometry">
            <mxPoint x="225" y="340" as="sourcePoint" />
            <mxPoint x="275" y="320" as="targetPoint" />
          </mxGeometry>
        </mxCell>
        <mxCell id="zaG6w3NYUVX7-Np-dRyB-14" value="" style="endArrow=none;html=1;rounded=0;entryX=0;entryY=0.5;entryDx=0;entryDy=0;exitX=1;exitY=0.5;exitDx=0;exitDy=0;" parent="1" source="zaG6w3NYUVX7-Np-dRyB-4" target="zaG6w3NYUVX7-Np-dRyB-8" edge="1">
          <mxGeometry width="50" height="50" relative="1" as="geometry">
            <mxPoint x="261" y="314" as="sourcePoint" />
            <mxPoint x="305" y="330" as="targetPoint" />
          </mxGeometry>
        </mxCell>
        <mxCell id="zaG6w3NYUVX7-Np-dRyB-15" value="" style="endArrow=none;html=1;rounded=0;entryX=1;entryY=0;entryDx=0;entryDy=0;exitX=0;exitY=1;exitDx=0;exitDy=0;" parent="1" source="zaG6w3NYUVX7-Np-dRyB-7" target="zaG6w3NYUVX7-Np-dRyB-4" edge="1">
          <mxGeometry width="50" height="50" relative="1" as="geometry">
            <mxPoint x="271" y="324" as="sourcePoint" />
            <mxPoint x="315" y="340" as="targetPoint" />
          </mxGeometry>
        </mxCell>
        <mxCell id="zaG6w3NYUVX7-Np-dRyB-16" value="" style="endArrow=none;html=1;rounded=0;entryX=0.5;entryY=1;entryDx=0;entryDy=0;exitX=0.5;exitY=0;exitDx=0;exitDy=0;" parent="1" source="zaG6w3NYUVX7-Np-dRyB-4" target="zaG6w3NYUVX7-Np-dRyB-6" edge="1">
          <mxGeometry width="50" height="50" relative="1" as="geometry">
            <mxPoint x="281" y="334" as="sourcePoint" />
            <mxPoint x="325" y="350" as="targetPoint" />
          </mxGeometry>
        </mxCell>
        <mxCell id="zaG6w3NYUVX7-Np-dRyB-17" value="" style="endArrow=none;html=1;rounded=0;entryX=0;entryY=0;entryDx=0;entryDy=0;exitX=0.5;exitY=1;exitDx=0;exitDy=0;" parent="1" source="zaG6w3NYUVX7-Np-dRyB-5" target="zaG6w3NYUVX7-Np-dRyB-4" edge="1">
          <mxGeometry width="50" height="50" relative="1" as="geometry">
            <mxPoint x="291" y="344" as="sourcePoint" />
            <mxPoint x="335" y="360" as="targetPoint" />
          </mxGeometry>
        </mxCell>
        <mxCell id="zaG6w3NYUVX7-Np-dRyB-18" value="&lt;font style=&quot;font-size: 24px;&quot;&gt;Test&lt;/font&gt;" style="rounded=1;whiteSpace=wrap;html=1;" parent="1" vertex="1">
          <mxGeometry x="170" y="507.5" width="120" height="60" as="geometry" />
        </mxCell>
        <mxCell id="zaG6w3NYUVX7-Np-dRyB-19" value="&lt;b&gt;&lt;u&gt;Code&lt;/u&gt;&lt;/b&gt;" style="ellipse;whiteSpace=wrap;html=1;" parent="1" vertex="1">
          <mxGeometry x="130" y="457.5" width="50" height="40" as="geometry" />
        </mxCell>
        <mxCell id="zaG6w3NYUVX7-Np-dRyB-20" value="Name" style="ellipse;whiteSpace=wrap;html=1;" parent="1" vertex="1">
          <mxGeometry x="205" y="457.5" width="50" height="40" as="geometry" />
        </mxCell>
        <mxCell id="zaG6w3NYUVX7-Np-dRyB-21" value="Cost" style="ellipse;whiteSpace=wrap;html=1;" parent="1" vertex="1">
          <mxGeometry x="280" y="457.5" width="50" height="40" as="geometry" />
        </mxCell>
        <mxCell id="zaG6w3NYUVX7-Np-dRyB-23" value="" style="endArrow=none;html=1;rounded=0;entryX=1;entryY=1;entryDx=0;entryDy=0;exitX=0.25;exitY=0;exitDx=0;exitDy=0;" parent="1" source="zaG6w3NYUVX7-Np-dRyB-18" target="zaG6w3NYUVX7-Np-dRyB-19" edge="1">
          <mxGeometry width="50" height="50" relative="1" as="geometry">
            <mxPoint x="260" y="517.5" as="sourcePoint" />
            <mxPoint x="310" y="467.5" as="targetPoint" />
          </mxGeometry>
        </mxCell>
        <mxCell id="zaG6w3NYUVX7-Np-dRyB-24" value="" style="endArrow=none;html=1;rounded=0;entryX=0.5;entryY=1;entryDx=0;entryDy=0;exitX=0.5;exitY=0;exitDx=0;exitDy=0;" parent="1" source="zaG6w3NYUVX7-Np-dRyB-18" target="zaG6w3NYUVX7-Np-dRyB-20" edge="1">
          <mxGeometry width="50" height="50" relative="1" as="geometry">
            <mxPoint x="210" y="517.5" as="sourcePoint" />
            <mxPoint x="183" y="501.5" as="targetPoint" />
          </mxGeometry>
        </mxCell>
        <mxCell id="zaG6w3NYUVX7-Np-dRyB-25" value="" style="endArrow=none;html=1;rounded=0;entryX=0;entryY=1;entryDx=0;entryDy=0;exitX=0.75;exitY=0;exitDx=0;exitDy=0;" parent="1" source="zaG6w3NYUVX7-Np-dRyB-18" target="zaG6w3NYUVX7-Np-dRyB-21" edge="1">
          <mxGeometry width="50" height="50" relative="1" as="geometry">
            <mxPoint x="220" y="527.5" as="sourcePoint" />
            <mxPoint x="193" y="511.5" as="targetPoint" />
          </mxGeometry>
        </mxCell>
        <mxCell id="zaG6w3NYUVX7-Np-dRyB-26" value="&lt;font style=&quot;font-size: 24px;&quot;&gt;Patient&lt;/font&gt;" style="rounded=1;whiteSpace=wrap;html=1;" parent="1" vertex="1">
          <mxGeometry x="605" y="425" width="120" height="60" as="geometry" />
        </mxCell>
        <mxCell id="zaG6w3NYUVX7-Np-dRyB-27" value="&lt;b&gt;&lt;u&gt;ID&lt;/u&gt;&lt;/b&gt;" style="ellipse;whiteSpace=wrap;html=1;" parent="1" vertex="1">
          <mxGeometry x="570" y="370" width="40" height="40" as="geometry" />
        </mxCell>
        <mxCell id="zaG6w3NYUVX7-Np-dRyB-28" value="Name" style="ellipse;whiteSpace=wrap;html=1;" parent="1" vertex="1">
          <mxGeometry x="630" y="370" width="70" height="40" as="geometry" />
        </mxCell>
        <mxCell id="zaG6w3NYUVX7-Np-dRyB-29" value="Age" style="ellipse;whiteSpace=wrap;html=1;dashed=1;" parent="1" vertex="1">
          <mxGeometry x="720" y="370" width="50" height="40" as="geometry" />
        </mxCell>
        <mxCell id="zaG6w3NYUVX7-Np-dRyB-30" value="" style="endArrow=none;html=1;rounded=0;entryX=0.25;entryY=0;entryDx=0;entryDy=0;exitX=1;exitY=1;exitDx=0;exitDy=0;" parent="1" source="zaG6w3NYUVX7-Np-dRyB-27" target="zaG6w3NYUVX7-Np-dRyB-26" edge="1">
          <mxGeometry width="50" height="50" relative="1" as="geometry">
            <mxPoint x="560" y="490" as="sourcePoint" />
            <mxPoint x="610" y="440" as="targetPoint" />
          </mxGeometry>
        </mxCell>
        <mxCell id="zaG6w3NYUVX7-Np-dRyB-31" value="" style="endArrow=none;html=1;rounded=0;entryX=0.5;entryY=0;entryDx=0;entryDy=0;exitX=0.5;exitY=1;exitDx=0;exitDy=0;" parent="1" source="zaG6w3NYUVX7-Np-dRyB-28" target="zaG6w3NYUVX7-Np-dRyB-26" edge="1">
          <mxGeometry width="50" height="50" relative="1" as="geometry">
            <mxPoint x="614" y="414" as="sourcePoint" />
            <mxPoint x="645" y="435" as="targetPoint" />
          </mxGeometry>
        </mxCell>
        <mxCell id="zaG6w3NYUVX7-Np-dRyB-32" value="" style="endArrow=none;html=1;rounded=0;entryX=0.75;entryY=0;entryDx=0;entryDy=0;exitX=0;exitY=1;exitDx=0;exitDy=0;" parent="1" source="zaG6w3NYUVX7-Np-dRyB-29" target="zaG6w3NYUVX7-Np-dRyB-26" edge="1">
          <mxGeometry width="50" height="50" relative="1" as="geometry">
            <mxPoint x="675" y="420" as="sourcePoint" />
            <mxPoint x="675" y="435" as="targetPoint" />
          </mxGeometry>
        </mxCell>
        <mxCell id="zaG6w3NYUVX7-Np-dRyB-34" value="Phone" style="ellipse;whiteSpace=wrap;html=1;" parent="1" vertex="1">
          <mxGeometry x="740" y="435" width="50" height="40" as="geometry" />
        </mxCell>
        <mxCell id="zaG6w3NYUVX7-Np-dRyB-35" value="D.B" style="ellipse;whiteSpace=wrap;html=1;" parent="1" vertex="1">
          <mxGeometry x="730" y="492.5" width="50" height="40" as="geometry" />
        </mxCell>
        <mxCell id="zaG6w3NYUVX7-Np-dRyB-36" value="Gender" style="ellipse;whiteSpace=wrap;html=1;" parent="1" vertex="1">
          <mxGeometry x="640" y="492.5" width="50" height="40" as="geometry" />
        </mxCell>
        <mxCell id="zaG6w3NYUVX7-Np-dRyB-37" value="Chronic Diseases" style="ellipse;whiteSpace=wrap;html=1;" parent="1" vertex="1">
          <mxGeometry x="525" y="485" width="80" height="55" as="geometry" />
        </mxCell>
        <mxCell id="zaG6w3NYUVX7-Np-dRyB-38" value="" style="endArrow=none;html=1;rounded=0;entryX=0.25;entryY=1;entryDx=0;entryDy=0;exitX=1;exitY=0.5;exitDx=0;exitDy=0;" parent="1" source="zaG6w3NYUVX7-Np-dRyB-37" target="zaG6w3NYUVX7-Np-dRyB-26" edge="1">
          <mxGeometry width="50" height="50" relative="1" as="geometry">
            <mxPoint x="603" y="508.5" as="sourcePoint" />
            <mxPoint x="630" y="492.5" as="targetPoint" />
          </mxGeometry>
        </mxCell>
        <mxCell id="zaG6w3NYUVX7-Np-dRyB-39" value="" style="endArrow=none;html=1;rounded=0;entryX=0.5;entryY=1;entryDx=0;entryDy=0;exitX=0.5;exitY=0;exitDx=0;exitDy=0;" parent="1" source="zaG6w3NYUVX7-Np-dRyB-36" target="zaG6w3NYUVX7-Np-dRyB-26" edge="1">
          <mxGeometry width="50" height="50" relative="1" as="geometry">
            <mxPoint x="615" y="523" as="sourcePoint" />
            <mxPoint x="645" y="495" as="targetPoint" />
          </mxGeometry>
        </mxCell>
        <mxCell id="zaG6w3NYUVX7-Np-dRyB-40" value="" style="endArrow=none;html=1;rounded=0;entryX=0.75;entryY=1;entryDx=0;entryDy=0;exitX=0;exitY=0.5;exitDx=0;exitDy=0;" parent="1" source="zaG6w3NYUVX7-Np-dRyB-35" target="zaG6w3NYUVX7-Np-dRyB-26" edge="1">
          <mxGeometry width="50" height="50" relative="1" as="geometry">
            <mxPoint x="675" y="503" as="sourcePoint" />
            <mxPoint x="675" y="495" as="targetPoint" />
          </mxGeometry>
        </mxCell>
        <mxCell id="zaG6w3NYUVX7-Np-dRyB-41" value="" style="endArrow=none;html=1;rounded=0;entryX=1;entryY=0.5;entryDx=0;entryDy=0;exitX=0;exitY=0.5;exitDx=0;exitDy=0;" parent="1" source="zaG6w3NYUVX7-Np-dRyB-34" target="zaG6w3NYUVX7-Np-dRyB-26" edge="1">
          <mxGeometry width="50" height="50" relative="1" as="geometry">
            <mxPoint x="685" y="513" as="sourcePoint" />
            <mxPoint x="685" y="505" as="targetPoint" />
          </mxGeometry>
        </mxCell>
        <mxCell id="zaG6w3NYUVX7-Np-dRyB-42" value="&lt;span style=&quot;font-size:14.0pt;line-height:107%;&lt;br/&gt;font-family:&amp;quot;Arial&amp;quot;,sans-serif;mso-ascii-theme-font:minor-bidi;mso-fareast-font-family:&lt;br/&gt;Calibri;mso-fareast-theme-font:minor-latin;mso-hansi-theme-font:minor-bidi;&lt;br/&gt;mso-bidi-theme-font:minor-bidi;mso-ansi-language:EN-US;mso-fareast-language:&lt;br/&gt;EN-US;mso-bidi-language:AR-EG&quot;&gt;Employee&lt;/span&gt;&lt;span style=&quot;color: rgba(0, 0, 0, 0); font-family: monospace; font-size: 0px; text-align: start; text-wrap: nowrap;&quot;&gt;%3CmxGraphModel%3E%3Croot%3E%3CmxCell%20id%3D%220%22%2F%3E%3CmxCell%20id%3D%221%22%20parent%3D%220%22%2F%3E%3CmxCell%20id%3D%222%22%20value%3D%22%26lt%3Bfont%20style%3D%26quot%3Bfont-size%3A%2024px%3B%26quot%3B%26gt%3BPatient%26lt%3B%2Ffont%26gt%3B%22%20style%3D%22rounded%3D1%3BwhiteSpace%3Dwrap%3Bhtml%3D1%3B%22%20vertex%3D%221%22%20parent%3D%221%22%3E%3CmxGeometry%20x%3D%22605%22%20y%3D%22425%22%20width%3D%22120%22%20height%3D%2260%22%20as%3D%22geometry%22%2F%3E%3C%2FmxCell%3E%3C%2Froot%3E%3C%2FmxGraphModel%3E&lt;/span&gt;" style="rounded=1;whiteSpace=wrap;html=1;" parent="1" vertex="1">
          <mxGeometry x="515" y="100" width="120" height="60" as="geometry" />
        </mxCell>
        <mxCell id="zaG6w3NYUVX7-Np-dRyB-43" value="&lt;b&gt;&lt;u&gt;ID&lt;/u&gt;&lt;/b&gt;" style="ellipse;whiteSpace=wrap;html=1;" parent="1" vertex="1">
          <mxGeometry x="480" y="40" width="50" height="40" as="geometry" />
        </mxCell>
        <mxCell id="zaG6w3NYUVX7-Np-dRyB-44" value="Name&lt;span style=&quot;color: rgba(0, 0, 0, 0); font-family: monospace; font-size: 0px; text-align: start; text-wrap: nowrap;&quot;&gt;%3CmxGraphModel%3E%3Croot%3E%3CmxCell%20id%3D%220%22%2F%3E%3CmxCell%20id%3D%221%22%20parent%3D%220%22%2F%3E%3CmxCell%20id%3D%222%22%20value%3D%22ID%22%20style%3D%22ellipse%3BwhiteSpace%3Dwrap%3Bhtml%3D1%3B%22%20vertex%3D%221%22%20parent%3D%221%22%3E%3CmxGeometry%20x%3D%22550%22%20y%3D%22200%22%20width%3D%2250%22%20height%3D%2240%22%20as%3D%22geometry%22%2F%3E%3C%2FmxCell%3E%3C%2Froot%3E%3C%2FmxGraphModel%3E&lt;/span&gt;" style="ellipse;whiteSpace=wrap;html=1;" parent="1" vertex="1">
          <mxGeometry x="550" y="40" width="50" height="40" as="geometry" />
        </mxCell>
        <mxCell id="zaG6w3NYUVX7-Np-dRyB-45" value="Salary" style="ellipse;whiteSpace=wrap;html=1;" parent="1" vertex="1">
          <mxGeometry x="620" y="40" width="55" height="40" as="geometry" />
        </mxCell>
        <mxCell id="TPUndX-1nc1zuqDUBP_W-1" value="" style="endArrow=none;html=1;rounded=0;entryX=0.5;entryY=1;entryDx=0;entryDy=0;exitX=0.25;exitY=0;exitDx=0;exitDy=0;" edge="1" parent="1" source="zaG6w3NYUVX7-Np-dRyB-42" target="zaG6w3NYUVX7-Np-dRyB-43">
          <mxGeometry width="50" height="50" relative="1" as="geometry">
            <mxPoint x="465" y="170" as="sourcePoint" />
            <mxPoint x="515" y="120" as="targetPoint" />
          </mxGeometry>
        </mxCell>
        <mxCell id="TPUndX-1nc1zuqDUBP_W-2" value="" style="endArrow=none;html=1;rounded=0;entryX=0.5;entryY=1;entryDx=0;entryDy=0;exitX=0.5;exitY=0;exitDx=0;exitDy=0;" edge="1" parent="1" source="zaG6w3NYUVX7-Np-dRyB-42" target="zaG6w3NYUVX7-Np-dRyB-44">
          <mxGeometry width="50" height="50" relative="1" as="geometry">
            <mxPoint x="555" y="110" as="sourcePoint" />
            <mxPoint x="510" y="100" as="targetPoint" />
          </mxGeometry>
        </mxCell>
        <mxCell id="TPUndX-1nc1zuqDUBP_W-3" value="" style="endArrow=none;html=1;rounded=0;entryX=0.2;entryY=0.935;entryDx=0;entryDy=0;exitX=0.75;exitY=0;exitDx=0;exitDy=0;entryPerimeter=0;" edge="1" parent="1" source="zaG6w3NYUVX7-Np-dRyB-42" target="zaG6w3NYUVX7-Np-dRyB-45">
          <mxGeometry width="50" height="50" relative="1" as="geometry">
            <mxPoint x="585" y="110" as="sourcePoint" />
            <mxPoint x="590" y="90" as="targetPoint" />
          </mxGeometry>
        </mxCell>
        <mxCell id="TPUndX-1nc1zuqDUBP_W-4" value="Duration" style="ellipse;whiteSpace=wrap;html=1;" vertex="1" parent="1">
          <mxGeometry x="310" y="507.5" width="60" height="42.5" as="geometry" />
        </mxCell>
        <mxCell id="TPUndX-1nc1zuqDUBP_W-5" value="" style="endArrow=none;html=1;rounded=0;entryX=0;entryY=0.5;entryDx=0;entryDy=0;exitX=1;exitY=0.5;exitDx=0;exitDy=0;" edge="1" parent="1" source="zaG6w3NYUVX7-Np-dRyB-18" target="TPUndX-1nc1zuqDUBP_W-4">
          <mxGeometry width="50" height="50" relative="1" as="geometry">
            <mxPoint x="270" y="518" as="sourcePoint" />
            <mxPoint x="297" y="502" as="targetPoint" />
          </mxGeometry>
        </mxCell>
        <mxCell id="TPUndX-1nc1zuqDUBP_W-6" value="Team" style="ellipse;whiteSpace=wrap;html=1;" vertex="1" parent="1">
          <mxGeometry x="665" y="80" width="50" height="40" as="geometry" />
        </mxCell>
        <mxCell id="TPUndX-1nc1zuqDUBP_W-7" value="Start Time" style="ellipse;whiteSpace=wrap;html=1;" vertex="1" parent="1">
          <mxGeometry x="665" y="130" width="50" height="40" as="geometry" />
        </mxCell>
        <mxCell id="TPUndX-1nc1zuqDUBP_W-8" value="End Time" style="ellipse;whiteSpace=wrap;html=1;" vertex="1" parent="1">
          <mxGeometry x="610" y="170" width="50" height="40" as="geometry" />
        </mxCell>
        <mxCell id="TPUndX-1nc1zuqDUBP_W-9" value="" style="endArrow=none;html=1;rounded=0;entryX=0;entryY=0.5;entryDx=0;entryDy=0;exitX=1;exitY=0.25;exitDx=0;exitDy=0;" edge="1" parent="1" source="zaG6w3NYUVX7-Np-dRyB-42" target="TPUndX-1nc1zuqDUBP_W-6">
          <mxGeometry width="50" height="50" relative="1" as="geometry">
            <mxPoint x="615" y="110" as="sourcePoint" />
            <mxPoint x="641" y="87" as="targetPoint" />
          </mxGeometry>
        </mxCell>
        <mxCell id="TPUndX-1nc1zuqDUBP_W-10" value="" style="endArrow=none;html=1;rounded=0;entryX=0;entryY=0.5;entryDx=0;entryDy=0;exitX=1;exitY=0.5;exitDx=0;exitDy=0;" edge="1" parent="1" source="zaG6w3NYUVX7-Np-dRyB-42" target="TPUndX-1nc1zuqDUBP_W-7">
          <mxGeometry width="50" height="50" relative="1" as="geometry">
            <mxPoint x="645" y="125" as="sourcePoint" />
            <mxPoint x="675" y="110" as="targetPoint" />
          </mxGeometry>
        </mxCell>
        <mxCell id="TPUndX-1nc1zuqDUBP_W-11" value="" style="endArrow=none;html=1;rounded=0;entryX=0.75;entryY=1;entryDx=0;entryDy=0;exitX=0;exitY=0;exitDx=0;exitDy=0;" edge="1" parent="1" source="TPUndX-1nc1zuqDUBP_W-8" target="zaG6w3NYUVX7-Np-dRyB-42">
          <mxGeometry width="50" height="50" relative="1" as="geometry">
            <mxPoint x="645" y="155" as="sourcePoint" />
            <mxPoint x="682" y="146" as="targetPoint" />
          </mxGeometry>
        </mxCell>
      </root>
    </mxGraphModel>
  </diagram>
</mxfile>
